# xmcd CD database file
# Copyright (C) 1993-1998 Ti Kan
#
# Track frame offsets:
#	150
#	15269
#	30246
#	44237
#	63863
#	79743
#	97580
#	120744
#	135608
#	154758
#	167464
#	178258
#	200107
#
# Disc length: 2873 seconds
#
# Revision: 0
# Processed by: cddbd v1.4b41PL1 Copyright (c) Steve Scherf et al.
# Submitted via: CDmax 1.5
#
DISCID=9e0b370d
DTITLE=CUSTER - CUSTER 1st
DYEAR=1900
DGENRE=
TTITLE0=MAMAS DON'T LET YOUR BABIES GROW UP TO BE COWBOYS
TTITLE1=JUST LIKE A RODEO
TTITLE2=EVERYTHING I LOVE
TTITLE3=ANYWAY THE WIND BLOWES
TTITLE4=COWBOY BAND
TTITLE5=SHELTER FROM THE STORM
TTITLE6=IRELAND
TTITLE7=RAGTOP
TTITLE8=LOVE THE ONE YOU WITH
TTITLE9=6 DAYS ON THE ROAD
TTITLE10=SOLD
TTITLE11=THE DANCE
TTITLE12=MY MARIA
EXTD=
EXTT0=
EXTT1=
EXTT2=
EXTT3=
EXTT4=
EXTT5=
EXTT6=
EXTT7=
EXTT8=
EXTT9=
EXTT10=
EXTT11=
EXTT12=
PLAYORDER=
